PathFileType	4	(X/Y/Z)	./resultDataOpenSim/trcMotMarkerGrf/sub06/qtm-02-02.trc
DataRate	CameraRate	NumFrames	NumMarkers	Units	OrigDataRate	OrigDataStartFrame	OrigNumFrames
250.000000	250.000000	12	24	m	250.000000	61	483
Frame#	Time	L.Toe.Tip			R.Toe.Tip			L.Ankle.Lat			R.Ankle.Lat			L.Ankle.Med			R.Ankle.Med			L.Heel			R.Heel			L.Knee.Lat			R.Knee.Lat			L.Knee.Med			R.Knee.Med			L.Thigh.Upper			R.Thigh.Upper			L.ASIS			R.ASIS			V.Sacral			L.Acromium			R.Acromium			C7			L.Elbow			R.Elbow			L.Wrist.Lat			R.Wrist.Lat
		X1	Y1	Z1	X2	Y2	Z2	X3	Y3	Z3	X4	Y4	Z4	X5	Y5	Z5	X6	Y6	Z6	X7	Y7	Z7	X8	Y8	Z8	X9	Y9	Z9	X10	Y10	Z10	X11	Y11	Z11	X12	Y12	Z12	X13	Y13	Z13	X14	Y14	Z14	X15	Y15	Z15	X16	Y16	Z16	X17	Y17	Z17	X18	Y18	Z18	X19	Y19	Z19	X20	Y20	Z20	X21	Y21	Z21	X22	Y22	Z22	X23	Y23	Z23	X24	Y24	Z24

61	0.24	-1.3811043	0.078799973	-0.096052189	-0.72339663	0.035940857	0.079536568	-1.378537	0.2094109	-0.12231969	-0.85609172	0.062117449	0.10302838	-1.3582675	0.21023626	-0.040579502	-0.84116021	0.078308325	0.014763309	-1.4205993	0.2669106	-0.070852091	-0.91555145	0.037658915	0.043265116	-1.0330986	0.36818308	-0.15391561	-0.79642323	0.44340835	0.12461683	-1.0248648	0.35006238	-0.036039036	-0.8384336	0.42739592	0.0027782775	-1.0072033	0.75701053	-0.15244672	-0.95277541	0.78623535	0.18897883	-0.92340322	0.80633063	-0.11706532	-0.87999656	0.83181317	0.11855478	-1.0874613	0.8985074	0.028627402	-0.96176738	1.3048305	-0.16625421	-0.96623796	1.285816	0.19515384	-1.0385677	1.3341225	0.014125213	-0.95803126	0.97909115	-0.23190449	-1.0853453	0.99275755	0.2427908	-0.74198339	0.86122629	-0.18889097	-1.0050335	0.77600125	0.31056582
62	0.244	-1.3665722	0.080667825	-0.095852524	-0.72347683	0.035932708	0.079685321	-1.365185	0.2114372	-0.12207169	-0.8562602	0.062113656	0.10302136	-1.345712	0.2121255	-0.039946928	-0.84119385	0.078410895	0.014852201	-1.4076803	0.26876872	-0.070720498	-0.91559386	0.037700588	0.043243023	-1.0198658	0.36910112	-0.15462468	-0.79397273	0.44301102	0.12539232	-1.0116036	0.35141068	-0.036352935	-0.83625883	0.42723764	0.0038562377	-1.000417	0.7587096	-0.15193921	-0.94666705	0.78745813	0.18941854	-0.9167115	0.80821343	-0.11680134	-0.87395893	0.83292054	0.11921542	-1.0804999	0.90020706	0.029028724	-0.95566645	1.306441	-0.16609421	-0.95937811	1.287561	0.19529986	-1.0320007	1.3358479	0.014487399	-0.95317914	0.98064542	-0.23121475	-1.0768673	0.99376271	0.24364471	-0.73825152	0.86089502	-0.18947526	-0.99444261	0.77749343	0.31076452
63	0.248	-1.3519347	0.082280823	-0.095793038	-0.7235727	0.035933039	0.079845687	-1.3515655	0.21322658	-0.1218014	-0.85654369	0.062084832	0.10303215	-1.3323902	0.21396615	-0.039519573	-0.84124228	0.078516086	0.014950609	-1.3946682	0.27022989	-0.070354261	-0.9156327	0.037750291	0.043210593	-1.0065683	0.37019044	-0.15524202	-0.79180276	0.44253679	0.12608225	-0.99829918	0.35293077	-0.036642964	-0.83414437	0.42718702	0.0047668292	-0.99368923	0.76045034	-0.15146489	-0.94054877	0.78870794	0.18991964	-0.91002043	0.81012135	-0.11657342	-0.86801848	0.83408	0.11989794	-1.0735787	0.90192915	0.029355359	-0.9496378	1.3081106	-0.16593705	-0.95260036	1.289388	0.19544513	-1.0254806	1.3375962	0.014800151	-0.94848173	0.98221891	-0.23070767	-1.0683021	0.99483056	0.24453105	-0.73475837	0.86059404	-0.19015404	-0.98362901	0.77920301	0.3109232
64	0.252	-1.3370522	0.08375175	-0.095961996	-0.7236863	0.035939487	0.080017429	-1.3377265	0.21474882	-0.12145982	-0.85702624	0.061992662	0.10305395	-1.3178241	0.21592053	-0.039554209	-0.84126973	0.078621122	0.01505701	-1.3815794	0.27130815	-0.069730256	-0.91567279	0.037811135	0.043174223	-0.99322131	0.371451	-0.15574023	-0.78994106	0.44199805	0.1267039	-0.98487543	0.35461476	-0.036934198	-0.83209303	0.42725624	0.0055164695	-0.98701106	0.76223913	-0.15101297	-0.9345894	0.78998938	0.19044625	-0.90350864	0.8120759	-0.11644147	-0.86216402	0.83527226	0.12061009	-1.0668123	0.9036705	0.029605149	-0.94367277	1.3098338	-0.16578923	-0.94589804	1.2912891	0.19559155	-1.0189988	1.3393615	0.015067357	-0.94392254	0.98381352	-0.23035671	-1.0596753	0.99596253	0.24545754	-0.73130194	0.8603288	-0.19082132	-0.97261579	0.78111717	0.3110369
65	0.256	-1.3218353	0.085119126	-0.096316499	-0.72381698	0.035950211	0.080198635	-1.3237419	0.21601833	-0.12104303	-0.85769425	0.061840312	0.10308373	-1.3025073	0.2178153	-0.039851914	-0.84127502	0.07872415	0.015170137	-1.3684046	0.27208358	-0.069000859	-0.91571732	0.037884256	0.043138578	-0.97989031	0.37288321	-0.15613177	-0.78829236	0.44148157	0.12727068	-0.97131891	0.35648004	-0.037197062	-0.83004141	0.4274426	0.0060547164	-0.98036612	0.76408139	-0.15058015	-0.92907443	0.79126696	0.19093442	-0.89719794	0.81409179	-0.1163783	-0.85638792	0.83648046	0.12135715	-1.0603409	0.90542127	0.029887881	-0.93775559	1.3116098	-0.16564842	-0.93925824	1.2932643	0.19573662	-1.0125518	1.3411459	0.015295424	-0.93941547	0.98546455	-0.23001317	-1.0510649	0.99716654	0.2463781	-0.72783065	0.86010197	-0.19145606	-0.9614875	0.78318869	0.31110857
66	0.26	-1.3062745	0.086361906	-0.096756058	-0.72396072	0.035965437	0.080384784	-1.3097069	0.21707652	-0.12059493	-0.85838188	0.061689635	0.10312823	-1.2872825	0.219368	-0.040036673	-0.8412769	0.07882449	0.015288433	-1.355121	0.2726328	-0.068345412	-0.91576597	0.037963907	0.043104992	-0.96663601	0.3744783	-0.15644593	-0.78674849	0.44107898	0.12777	-0.95779052	0.35851626	-0.037307414	-0.8279285	0.4277302	0.0063297664	-0.97373377	0.76598405	-0.15017347	-0.9242263	0.79246696	0.19132723	-0.89092914	0.81616286	-0.11627597	-0.85068687	0.8377039	0.12214168	-1.0542716	0.90715005	0.030334417	-0.93187074	1.3134391	-0.16550673	-0.93266716	1.2953098	0.19587716	-1.0061413	1.3429544	0.015489931	-0.93489275	0.98721167	-0.22957941	-1.042536	0.99844544	0.24723847	-0.72438188	0.85992405	-0.1920813	-0.95030283	0.785379	0.31114513
67	0.264	-1.29041	0.087440619	-0.09721357	-0.72411079	0.035986269	0.080568916	-1.295665	0.21793556	-0.12015302	-0.85891594	0.061607197	0.10319393	-1.2724755	0.22047966	-0.039966468	-0.84129309	0.078923036	0.015410171	-1.341692	0.27296753	-0.067806664	-0.9158156	0.038042352	0.043071738	-0.95346052	0.3762328	-0.1566977	-0.78527971	0.44081485	0.12819589	-0.9446062	0.36068845	-0.037116024	-0.82583303	0.42809938	0.0064290356	-0.96709555	0.76795505	-0.14979649	-0.92017394	0.79350773	0.19156986	-0.88455597	0.81826302	-0.1160614	-0.84503976	0.8389566	0.12296781	-1.0485087	0.90884736	0.03093894	-0.92600845	1.3153146	-0.16536227	-0.92610874	1.2974085	0.19600683	-0.99976528	1.3447878	0.015654621	-0.93037829	0.989069	-0.22914373	-1.0340878	0.99979143	0.24803401	-0.72098587	0.85980291	-0.19271368	-0.93908291	0.78766845	0.31115125
68	0.268	-1.2742941	0.0883218	-0.097664261	-0.72425956	0.036012249	0.080744246	-1.2815444	0.21858329	-0.11973576	-0.85927221	0.061603246	0.10327786	-1.2578915	0.22122355	-0.039733567	-0.8413322	0.079020968	0.015533758	-1.3280903	0.27304319	-0.067299395	-0.91586205	0.038116914	0.043037451	-0.94033916	0.37815246	-0.15689321	-0.78392175	0.44065638	0.12858164	-0.93188837	0.36298355	-0.036645936	-0.82388038	0.42852836	0.0064883709	-0.96043868	0.76999874	-0.1494479	-0.91673817	0.79438145	0.19166793	-0.87806885	0.82036051	-0.1157624	-0.83936408	0.84025885	0.12385023	-1.0427117	0.91056405	0.031498089	-0.9201622	1.3172201	-0.16522103	-0.91956789	1.2995395	0.19611595	-0.99341484	1.3466379	0.015794488	-0.92594286	0.9910268	-0.22887511	-1.0256802	1.0011908	0.24879951	-0.71765599	0.85973412	-0.19336349	-0.92783097	0.79004744	0.31112371
69	0.272	-1.2579572	0.088991921	-0.098108409	-0.72440167	0.036040298	0.08090556	-1.2672307	0.21901825	-0.11935483	-0.85952903	0.061643601	0.10337226	-1.243301	0.22169629	-0.039450442	-0.84139155	0.079118648	0.015656711	-1.3143301	0.27281652	-0.066739962	-0.91590218	0.038189247	0.043004103	-0.92725618	0.38023366	-0.15703561	-0.78271777	0.44056017	0.12897403	-0.91932935	0.36538393	-0.036126531	-0.82209318	0.42899512	0.0065609513	-0.95375348	0.77210943	-0.1491255	-0.91314317	0.79522007	0.19179087	-0.87153691	0.82243742	-0.1154488	-0.83349735	0.84162834	0.12481583	-1.0365585	0.91235224	0.03180358	-0.91432441	1.3191435	-0.16508677	-0.91303878	1.3016934	0.19619885	-0.98707796	1.3484916	0.015917419	-0.92161283	0.99306674	-0.22881586	-1.0172837	1.0026322	0.24956611	-0.71440463	0.85970588	-0.19404138	-0.91654443	0.79250954	0.31105598
70	0.276	-1.2413933	0.089457105	-0.098571084	-0.72453491	0.036065806	0.0810479	-1.2526874	0.21924583	-0.11900736	-0.85973659	0.061698657	0.10347075	-1.2286857	0.22196081	-0.039149389	-0.8414593	0.079216163	0.015774993	-1.3004587	0.27227373	-0.066106643	-0.91593535	0.03826127	0.042975496	-0.91420306	0.38245772	-0.15712252	-0.7816584	0.44049538	0.12938104	-0.90652352	0.36783867	-0.035757947	-0.82040625	0.42948275	0.0066387395	-0.94703408	0.77426823	-0.14882833	-0.90857601	0.79619789	0.19214974	-0.86500626	0.82449581	-0.11514576	-0.82730359	0.84306856	0.125884	-1.0300075	0.91419561	0.031860842	-0.90848381	1.3210805	-0.16495496	-0.90651332	1.3038691	0.1962586	-0.98074501	1.3503423	0.016033311	-0.91733802	0.99516823	-0.22880608	-1.0088925	1.0041091	0.25034514	-0.71126035	0.85970528	-0.19476581	-0.9052223	0.79504976	0.31094557
71	0.28	-1.2245776	0.089736028	-0.099091955	-0.72465869	0.036085061	0.081166798	-1.2379545	0.21926029	-0.11867891	-0.85987102	0.061764883	0.1035677	-1.2141686	0.22204416	-0.038796956	-0.84152277	0.079314381	0.015884879	-1.2865177	0.27141683	-0.065420525	-0.91596394	0.038332377	0.042952968	-0.90117545	0.38480826	-0.15715159	-0.7806299	0.44043734	0.12974075	-0.89336745	0.37032587	-0.035550027	-0.81876062	0.42997189	0.0067031579	-0.94028638	0.77645331	-0.14856406	-0.90307199	0.79735533	0.19274458	-0.85847121	0.82654807	-0.11482317	-0.82092019	0.84455229	0.12701833	-1.0232341	0.91603901	0.031829516	-0.90262488	1.3230235	-0.16481828	-0.89995068	1.3060592	0.19630018	-0.97440956	1.3521929	0.016152682	-0.91304665	0.99730915	-0.22863703	-1.0005129	1.0056173	0.25113689	-0.70826834	0.85971729	-0.19556704	-0.89386784	0.79766383	0.31079146
72	0.284	-1.2075161	0.08985388	-0.099676176	-0.72477323	0.036097801	0.081260079	-1.2230756	0.21904839	-0.11835892	-0.85986246	0.061859278	0.10365835	-1.199817	0.22193416	-0.038357418	-0.84157667	0.07941525	0.015983126	-1.272523	0.27025396	-0.064732028	-0.91599321	0.038395011	0.042934231	-0.88817265	0.38728385	-0.15712712	-0.77949309	0.44036642	0.12994905	-0.87999674	0.3728814	-0.035406696	-0.8171716	0.43042933	0.0067546302	-0.93352761	0.77865417	-0.14835232	-0.89736628	0.79859215	0.19337651	-0.85189655	0.82861039	-0.1144308	-0.81487861	0.84602136	0.12809179	-1.016415	0.91784635	0.031836144	-0.8967363	1.3249632	-0.1646763	-0.89327778	1.3082457	0.19632496	-0.96806517	1.3540455	0.016285011	-0.90871841	0.99946917	-0.22824803	-0.99215428	1.0071518	0.25194095	-0.70543407	0.85972904	-0.19646287	-0.88248354	0.80034565	0.31059062
